<?xml version="1.0" encoding="UTF-8" standalone="no"?>
<svg
   width="121"
   height="121"
   version="1.1"
   id="svg92"
   sodipodi:docname="favicon.svg"
   inkscape:version="1.1 (c68e22c387, 2021-05-23)"
   xmlns:inkscape="http://www.inkscape.org/namespaces/inkscape"
   xmlns:sodipodi="http://sodipodi.sourceforge.net/DTD/sodipodi-0.dtd"
   xmlns="http://www.w3.org/2000/svg"
   xmlns:svg="http://www.w3.org/2000/svg">
  <defs
     id="defs96" />
  <sodipodi:namedview
     id="namedview94"
     pagecolor="#ffffff"
     bordercolor="#666666"
     borderopacity="1.0"
     inkscape:pageshadow="2"
     inkscape:pageopacity="0.0"
     inkscape:pagecheckerboard="0"
     showgrid="false"
     inkscape:zoom="6.4214876"
     inkscape:cx="60.5"
     inkscape:cy="60.5"
     inkscape:current-layer="gear" />
  <g
     id="gear"
     transform="matrix(0.31859344,0,0,0.31859344,0.34069752,0.44513676)">
    <path
       d="M 123.78061,75.829593 C 185.83484,40.010391 265.6687,61.402032 301.50158,123.44942 337.32763,185.5105 315.94282,265.34435 253.88859,301.17039 191.82067,337.01011 111.98682,315.61163 76.160775,253.55056 40.334733,191.49633 61.719534,111.65563 123.78061,75.829593 m -29.108232,-50.41095 14.427562,-8.325427 27.82213,24.682135 c 7.7508,-2.743227 15.61788,-4.822867 23.54655,-6.279987 l 11.71169,-35.32665528 16.65087,0.0205333 h 16.65771 L 217.27583,35.61851 c 7.94919,1.491334 15.78207,3.584654 23.40288,6.273147 l 27.89739,-24.798427 14.40704,8.325427 14.43439,8.33228 -7.48399,36.469082 c 6.13632,5.2128 11.90324,10.96604 17.23919,17.204987 l 36.42804,-7.49768 8.31859,14.420719 8.3186,14.427555 -24.68899,27.82214 c 2.73639,7.75079 4.82287,15.61104 6.28,23.5397 l 35.32664,11.72538 -0.0137,16.64402 -0.007,16.65771 -35.42926,11.78695 c -1.47764,7.94919 -3.58466,15.78207 -6.26631,23.40289 l 24.80528,27.89054 -8.32544,14.41387 -8.33911,14.42756 -36.46225,-7.484 c -5.22648,6.14318 -10.97972,11.9101 -17.22551,17.25287 l 7.51136,36.42122 -14.42071,8.31174 -14.4344,8.31859 -27.80845,-24.68213 c -7.74395,2.73637 -15.62472,4.82286 -23.56023,6.27998 l -11.70485,35.32666 -16.64403,-0.0205 -16.66455,-0.007 -11.78011,-35.42243 c -7.95602,-1.47764 -15.78206,-3.58465 -23.40288,-6.27315 l -27.89739,24.81211 -14.413872,-8.33227 -14.427558,-8.33228 7.477155,-36.46908 c -6.129488,-5.2128 -11.903248,-10.96604 -17.246029,-17.22551 l -36.421203,7.5182 -8.311751,-14.42072 -8.325434,-14.4344 24.69582,-27.80845 C 39.370279,232.67216 37.28379,224.79139 35.833509,216.86273 L 0.50001579,205.14419 0.51369765,188.507 V 171.83562 L 35.949805,160.06235 c 1.484486,-7.95603 3.584657,-15.78207 6.266308,-23.40973 l -24.798435,-27.90422 8.325434,-14.400195 8.332274,-14.427559 36.46225,7.47716 C 75.757279,81.261473 81.510515,75.480872 87.763141,70.151779 L 80.25178,33.737417 Z"
       id="path85"
       style="fill:#36a9e1;fill-opacity:1;fill-rule:evenodd" />
    <path
       d="m 127.63548,291.64027 0.0479,-0.0411 c 35.86025,21.09748 81.79036,22.89664 120.27752,0.67726 56.88932,-32.8434 76.49548,-106.02785 43.65894,-162.91717 -4.40558,-7.60714 -9.51576,-14.5507 -15.22111,-20.7828 l -18.26534,18.25165 -7.55924,7.57293 -17.29392,17.28023 c 2.07282,2.49695 3.96775,5.20596 5.65747,8.10652 16.07623,27.86318 6.47153,63.70975 -21.39164,79.79965 -13.75715,7.94919 -29.4708,9.61838 -43.77523,5.91742 l 68.63523,-68.63522 h -49.58319 l 32.81603,-32.82284 17.28707,-17.29391 c -25.93403,-22.67775 -64.54434,-27.610069 -95.98533,-9.45419 -36.96848,21.33691 -51.252382,67.2123 -34.2321,105.38479 l -8.01759,8.00391 c -21.84315,-43.77522 -6.006357,-97.85975 36.92059,-122.63767 35.69606,-20.611767 79.59443,-14.858533 108.87368,11.14391 6.08844,-6.0816 12.17688,-12.16321 18.25848,-18.25165 -6.15001,-5.616417 -12.7652,-10.487173 -19.70876,-14.598587 l -0.0411,0.05467 C 213.13365,65.293779 167.19668,63.487765 128.70267,85.714006 71.827033,118.55055 52.214037,191.73501 85.057426,248.63117 c 3.427315,5.91742 7.292449,11.4449 11.526996,16.53457 h 0.0068 c 1.190324,1.4366 2.421695,2.85267 3.694108,4.24138 l 18.25165,-18.25158 7.55925,-7.56608 17.29392,-17.28708 c -2.07281,-2.49694 -3.96776,-5.19912 -5.64379,-8.09284 -16.08991,-27.87002 -6.47838,-63.72342 21.37796,-79.80649 13.76399,-7.94918 29.4708,-9.61837 43.78891,-5.9311 l -68.64887,68.6489 h 49.59687 l -32.82971,32.82287 -17.28707,17.28707 c 25.94771,22.68459 64.54434,27.61007 95.99217,9.46787 36.9548,-21.35059 51.25238,-67.22599 34.23211,-105.39163 l 8.01075,-8.01759 c 21.84314,43.78206 6.00634,97.87343 -36.90691,122.65819 -35.70975,20.59809 -79.60127,14.84485 -108.88053,-11.16443 -6.09528,6.09528 -12.18372,12.18373 -18.26533,18.27217 6.15686,5.62326 12.75837,10.48033 19.70877,14.5849"
       id="path87"
       style="fill:#706f6f;fill-opacity:1" />
    <path
       d="m 202.91258,132.47468 -68.64891,68.64207 h 49.59687 l -32.82971,32.82287 22.73931,11.5612 68.63523,-68.63523 h -49.58319 l 32.81603,-32.82286 z"
       id="path89"
       style="fill:#36a9e1;fill-opacity:1" />
  </g>
</svg>
