<?xml version="1.0" encoding="UTF-8" standalone="no"?>
<svg
   xmlns:dc="http://purl.org/dc/elements/1.1/"
   xmlns:cc="http://creativecommons.org/ns#"
   xmlns:rdf="http://www.w3.org/1999/02/22-rdf-syntax-ns#"
   xmlns:svg="http://www.w3.org/2000/svg"
   xmlns="http://www.w3.org/2000/svg"
   xmlns:sodipodi="http://sodipodi.sourceforge.net/DTD/sodipodi-0.dtd"
   xmlns:inkscape="http://www.inkscape.org/namespaces/inkscape"
   version="1.1"
   id="svg833"
   xml:space="preserve"
   width="48"
   height="48"
   viewBox="0 0 48 48"
   sodipodi:docname="instagram48x48.svg"
   inkscape:version="1.0.2 (e86c870879, 2021-01-15, custom)"><metadata
     id="metadata839"><rdf:RDF><cc:Work
         rdf:about=""><dc:format>image/svg+xml</dc:format><dc:type
           rdf:resource="http://purl.org/dc/dcmitype/StillImage" /><dc:title /></cc:Work></rdf:RDF></metadata><defs
     id="defs837"><clipPath
       clipPathUnits="userSpaceOnUse"
       id="clipPath849"><path
         d="M 0,30 H 30 V 0 H 0 Z"
         id="path847" /></clipPath></defs><sodipodi:namedview
     pagecolor="#ffffff"
     bordercolor="#666666"
     borderopacity="1"
     objecttolerance="10"
     gridtolerance="10"
     guidetolerance="10"
     inkscape:pageopacity="0"
     inkscape:pageshadow="2"
     inkscape:window-width="2560"
     inkscape:window-height="1027"
     id="namedview835"
     showgrid="false"
     inkscape:zoom="11.209421"
     inkscape:cx="15.749434"
     inkscape:cy="26.132178"
     inkscape:window-x="1912"
     inkscape:window-y="22"
     inkscape:window-maximized="1"
     inkscape:current-layer="g841"
     inkscape:document-rotation="0" /><g
     id="g841"
     inkscape:groupmode="layer"
     inkscape:label="instagram"
     transform="matrix(1.3333333,0,0,-1.3333333,0,40)"><rect
       style="fill:#000000;fill-rule:evenodd;stroke-width:2.28961"
       id="rect845"
       width="36"
       height="36"
       x="4.5000002e-07"
       y="-30"
       transform="scale(1,-1)"
       inkscape:label="retangulo" /><path
       d="m 26.838001,19.21559 c 0,-1.004054 -0.816429,-1.817839 -1.819286,-1.817839 -1.002857,0 -1.816714,0.813785 -1.816714,1.817839 0,1.004055 0.813857,1.820411 1.816714,1.820411 1.002857,0 1.819286,-0.816356 1.819286,-1.820411"
       style="fill:#ffffff;fill-opacity:1;fill-rule:nonzero;stroke:none;stroke-width:1.28565"
       id="path865"
       inkscape:label="simboloCirculoPequeno" /><path
       d="M 18.000643,7.6979352 C 15.62225,7.6979352 13.69768,9.62525 13.69768,12 c 0,2.378608 1.92457,4.303351 4.302963,4.303351 2.374537,0 4.301678,-1.924743 4.301678,-4.303351 0,-2.37475 -1.927141,-4.3020648 -4.301678,-4.3020648 m 0,11.4533158 c -3.950704,0 -7.151893,-3.200191 -7.151893,-7.151251 0,-3.948488 3.201189,-7.1512499 7.151893,-7.1512499 3.949419,0 7.150607,3.2027619 7.150607,7.1512499 0,3.95106 -3.201188,7.151251 -7.150607,7.151251"
       style="fill:#ffffff;fill-opacity:1;fill-rule:nonzero;stroke:none;stroke-width:1.28568"
       id="path861"
       inkscape:label="simboloCirculoMaior" /><path
       d="m 28.969758,7.7892499 c 0,-3.7337 -3.026583,-6.759 -6.759027,-6.759 h -8.420176 c -3.733729,0 -6.7603125,3.0253 -6.7603125,6.759 v 8.4202011 c 0,3.7325 3.0265835,6.7603 6.7603125,6.7603 h 8.420176 c 3.732444,0 6.759027,-3.0278 6.759027,-6.7603 z M 23.211021,25.574651 H 12.790265 c -4.6208751,0 -8.36489,-3.7453 -8.36489,-8.3662 V 6.7902499 c 0,-4.6208 3.7440149,-8.3649 8.36489,-8.3649 h 10.420756 c 4.61959,0 8.363605,3.7441 8.363605,8.3649 V 17.208451 c 0,4.6209 -3.744015,8.3662 -8.363605,8.3662"
       style="fill:#ffffff;fill-opacity:1;fill-rule:nonzero;stroke:none;stroke-width:1.28572"
       id="path857"
       inkscape:label="simboloRetangulo" /></g></svg>
