<?xml version="1.0" encoding="UTF-8" standalone="no"?>
<svg
   xmlns:dc="http://purl.org/dc/elements/1.1/"
   xmlns:cc="http://creativecommons.org/ns#"
   xmlns:rdf="http://www.w3.org/1999/02/22-rdf-syntax-ns#"
   xmlns:svg="http://www.w3.org/2000/svg"
   xmlns="http://www.w3.org/2000/svg"
   xmlns:sodipodi="http://sodipodi.sourceforge.net/DTD/sodipodi-0.dtd"
   xmlns:inkscape="http://www.inkscape.org/namespaces/inkscape"
   version="1.1"
   id="svg895"
   xml:space="preserve"
   width="48"
   height="48"
   viewBox="0 0 48 48"
   sodipodi:docname="linkedin48x48.svg"
   inkscape:version="1.0.2 (e86c870879, 2021-01-15, custom)"><metadata
     id="metadata901"><rdf:RDF><cc:Work
         rdf:about=""><dc:format>image/svg+xml</dc:format><dc:type
           rdf:resource="http://purl.org/dc/dcmitype/StillImage" /><dc:title /></cc:Work></rdf:RDF></metadata><defs
     id="defs899"><clipPath
       clipPathUnits="userSpaceOnUse"
       id="clipPath911"><path
         d="M 0,30 H 30 V 0 H 0 Z"
         id="path909" /></clipPath></defs><sodipodi:namedview
     pagecolor="#ffffff"
     bordercolor="#666666"
     borderopacity="1"
     objecttolerance="10"
     gridtolerance="10"
     guidetolerance="10"
     inkscape:pageopacity="0"
     inkscape:pageshadow="2"
     inkscape:window-width="2560"
     inkscape:window-height="1027"
     id="namedview897"
     showgrid="false"
     inkscape:zoom="4.185"
     inkscape:cx="-26.472845"
     inkscape:cy="5.6495131"
     inkscape:window-x="1912"
     inkscape:window-y="22"
     inkscape:window-maximized="1"
     inkscape:current-layer="g903"
     inkscape:document-rotation="0" /><g
     id="g903"
     inkscape:label="linkedin"
     transform="matrix(1.3333333,0,0,-1.3333333,0,40)"
     style="display:inline"><rect
       style="display:inline;fill:#000000;fill-opacity:1;fill-rule:evenodd;stroke:none;stroke-width:1.64034;stroke-opacity:1"
       id="rect844"
       width="36"
       height="36"
       x="4.5000002e-07"
       y="-30"
       transform="scale(1,-1)"
       inkscape:label="retangulo" /><g
       id="g853"
       transform="translate(-0.5388731,1.13e-4)"><path
         d="m 14.72475,16.371102 h 5.18278 V 13.9925 h 0.07457 c 0.720009,1.368017 2.484031,2.80675 5.110779,2.80675 5.470784,0 6.481368,-3.597474 6.481368,-8.277534 V -1.0119764 H 26.174182 V 7.440417 c 0,2.0173109 -0.03471,4.61063 -2.808036,4.61063 -2.811893,0 -3.241327,-2.1985998 -3.241327,-4.4653425 V -1.0119764 H 14.72475 Z"
         style="fill:#ffffff;fill-opacity:1;fill-rule:nonzero;stroke:none;stroke-width:1.28573"
         id="path923"
         inkscape:label="simboloN" /><path
         d="m 8.6353931,25.011751 c 1.7266549,0 3.1306069,-1.403994 3.1306069,-3.134558 0,-1.729279 -1.403952,-3.130702 -3.1306069,-3.130702 -1.731798,0 -3.131893,1.401423 -3.131893,3.130702 0,1.730564 1.400095,3.134558 3.131893,3.134558 M 5.932914,16.371786 h 5.403672 V -1.0109997 H 5.932914 Z"
         style="fill:#ffffff;fill-opacity:1;fill-rule:nonzero;stroke:none;stroke-width:1.28569"
         id="path919"
         inkscape:label="simboloI" /></g></g></svg>
