<?xml version="1.0" encoding="UTF-8" standalone="no"?>
<svg
   xmlns:dc="http://purl.org/dc/elements/1.1/"
   xmlns:cc="http://creativecommons.org/ns#"
   xmlns:rdf="http://www.w3.org/1999/02/22-rdf-syntax-ns#"
   xmlns:svg="http://www.w3.org/2000/svg"
   xmlns="http://www.w3.org/2000/svg"
   xmlns:sodipodi="http://sodipodi.sourceforge.net/DTD/sodipodi-0.dtd"
   xmlns:inkscape="http://www.inkscape.org/namespaces/inkscape"
   version="1.1"
   id="svg833"
   xml:space="preserve"
   width="1017"
   height="205"
   viewBox="0 0 1017 205"
   sodipodi:docname="NucleoMAP1012x200_PB.svg"
   inkscape:version="1.0.2 (e86c870879, 2021-01-15, custom)"><metadata
     id="metadata839"><rdf:RDF><cc:Work
         rdf:about=""><dc:format>image/svg+xml</dc:format><dc:type
           rdf:resource="http://purl.org/dc/dcmitype/StillImage" /><dc:title></dc:title></cc:Work></rdf:RDF></metadata><defs
     id="defs837"><clipPath
       clipPathUnits="userSpaceOnUse"
       id="clipPath849"><path
         d="M 0,113.386 H 337.323 V 0 H 0 Z"
         id="path847" /></clipPath></defs><sodipodi:namedview
     pagecolor="#ffffff"
     bordercolor="#666666"
     borderopacity="1"
     objecttolerance="10"
     gridtolerance="10"
     guidetolerance="10"
     inkscape:pageopacity="0"
     inkscape:pageshadow="2"
     inkscape:window-width="2560"
     inkscape:window-height="1027"
     id="namedview835"
     showgrid="false"
     inkscape:zoom="1.4142136"
     inkscape:cx="551.23917"
     inkscape:cy="123.66602"
     inkscape:window-x="1912"
     inkscape:window-y="22"
     inkscape:window-maximized="1"
     inkscape:current-layer="g841"
     inkscape:document-rotation="0" /><g
     id="g841"
     inkscape:groupmode="layer"
     inkscape:label="20190301LogoGerais"
     transform="matrix(1.3333333,0,0,-1.3333333,0,151.18133)"><g
       id="g843"
       transform="matrix(4.118913,0,0,4.118913,-114.09733,-235.39704)"><g
         id="g845"
         clip-path="url(#clipPath849)"
         transform="matrix(1.2768158,0,0,1.2768158,-58.473992,-18.686553)"><g
           id="g985"
           transform="matrix(0.6538322,0,0,0.6538322,82.359655,58.529948)"
           style="fill:#000000;fill-opacity:1"><path
             d="m 0,0 h -3.348 c -0.956,0 -1.737,0.302 -2.341,0.908 -0.608,0.606 -0.909,1.387 -0.909,2.343 v 13.004 c 0,1.53 -0.464,2.644 -1.386,3.347 -0.926,0.7 -1.961,1.051 -3.108,1.051 -1.148,0 -2.168,-0.351 -3.06,-1.051 -0.893,-0.703 -1.338,-1.817 -1.338,-3.347 V 0 h -6.694 v 14.917 c 0,4.334 1.131,7.233 3.394,8.701 2.263,1.465 4.765,2.262 7.507,2.391 2.804,0 5.386,-0.735 7.743,-2.199 C -1.182,22.342 0,19.378 0,14.917 Z"
             style="fill:#000000;fill-opacity:1;fill-rule:nonzero;stroke:none"
             id="path987" /></g><g
           id="g989"
           transform="matrix(0.6538322,0,0,0.6538322,95.377584,80.598747)"
           style="fill:#000000;fill-opacity:1"><path
             d="m 0,0 -5.832,-6.023 h -3.06 l 2.677,4.877 c 0.063,0.19 0.272,0.429 0.622,0.716 0.35,0.287 0.813,0.43 1.386,0.43 z m 4.304,-8.318 v -14.916 c 0,-4.528 -1.181,-7.493 -3.538,-8.893 -2.36,-1.403 -4.942,-2.103 -7.745,-2.103 -2.742,0.127 -5.245,0.891 -7.506,2.294 -2.265,1.401 -3.395,4.303 -3.395,8.702 v 14.916 h 6.693 v -16.256 c 0,-1.53 0.446,-2.646 1.339,-3.346 0.892,-0.703 1.912,-1.053 3.06,-1.053 1.147,0 2.183,0.35 3.107,1.053 0.923,0.7 1.387,1.816 1.387,3.346 v 13.005 c 0,0.891 0.302,1.657 0.908,2.294 0.605,0.636 1.386,0.957 2.343,0.957 z"
             style="fill:#000000;fill-opacity:1;fill-rule:nonzero;stroke:none"
             id="path991" /></g><g
           id="g993"
           transform="matrix(0.6538322,0,0,0.6538322,111.08486,63.656581)"
           style="fill:#000000;fill-opacity:1"><path
             d="M 0,0 H 4.781 C 4.078,-2.678 2.74,-4.719 0.766,-6.119 c -1.977,-1.468 -4.463,-2.199 -7.46,-2.199 -3.632,0 -6.471,1.177 -8.509,3.537 -2.041,2.295 -3.06,5.578 -3.06,9.848 0,4.079 0.988,7.267 2.964,9.562 2.039,2.357 4.877,3.539 8.509,3.539 3.826,0 6.79,-1.148 8.894,-3.443 1.148,-1.403 1.974,-3.028 2.485,-4.876 h -6.693 c -0.319,0.635 -0.637,1.114 -0.956,1.434 -0.829,0.892 -2.007,1.338 -3.538,1.338 -1.402,0 -2.55,-0.446 -3.442,-1.338 -1.148,-1.276 -1.721,-3.38 -1.721,-6.31 0,-2.934 0.573,-5.006 1.721,-6.216 0.828,-1.021 2.071,-1.53 3.729,-1.53 1.084,0 2.008,0.222 2.774,0.669 0.191,0.063 0.365,0.175 0.525,0.334 0.158,0.159 0.335,0.335 0.526,0.527 0.127,0.191 0.382,0.445 0.765,0.764 C -1.338,-0.16 -0.766,0 0,0"
             style="fill:#000000;fill-opacity:1;fill-rule:nonzero;stroke:none"
             id="path995" /></g><g
           id="g997"
           transform="matrix(0.6538322,0,0,0.6538322,115.72556,80.036189)"
           style="fill:#000000;fill-opacity:1"><path
             d="M 0,0 H 3.443 C 4.336,0 5.1,-0.304 5.738,-0.908 6.375,-1.515 6.693,-2.264 6.693,-3.155 V -32.893 H 0 Z"
             style="fill:#000000;fill-opacity:1;fill-rule:nonzero;stroke:none"
             id="path999" /></g><g
           id="g1001"
           transform="matrix(0.6538322,0,0,0.6538322,125.55599,68.532862)"
           style="fill:#000000;fill-opacity:1"><path
             d="M 0,0 H 9.754 C 9.625,1.722 9.18,2.995 8.414,3.825 7.586,4.717 6.406,5.163 4.877,5.163 3.475,5.163 2.326,4.717 1.436,3.825 0.541,2.931 0.062,1.657 0,0 m 11.475,-7.458 h 4.781 c -0.703,-2.678 -2.041,-4.719 -4.016,-6.119 -1.976,-1.468 -4.463,-2.199 -7.459,-2.199 -3.633,0 -6.47,1.177 -8.51,3.537 -2.041,2.295 -3.06,5.578 -3.06,9.848 0,4.079 0.988,7.267 2.965,9.562 2.039,2.357 4.877,3.539 8.51,3.539 3.824,0 6.789,-1.148 8.892,-3.443 2.039,-2.36 3.061,-5.641 3.061,-9.848 v -0.67 -0.383 c 0,-0.319 -0.034,-0.542 -0.096,-0.669 L 0,-4.303 c 0.062,-1.976 0.541,-3.442 1.436,-4.398 0.826,-1.021 2.07,-1.53 3.728,-1.53 1.084,0 2.008,0.222 2.773,0.669 0.192,0.063 0.366,0.175 0.526,0.334 0.158,0.159 0.334,0.335 0.525,0.527 0.063,0.191 0.303,0.445 0.717,0.764 0.414,0.319 1.004,0.479 1.77,0.479"
             style="fill:#000000;fill-opacity:1;fill-rule:nonzero;stroke:none"
             id="path1003" /></g><g
           id="g1005"
           transform="matrix(0.6538322,0,0,0.6538322,142.82638,71.033901)"
           style="fill:#000000;fill-opacity:1"><path
             d="m 0,0 c -1.338,-1.468 -1.945,-3.65 -1.816,-6.551 0.127,-2.9 0.67,-4.924 1.625,-6.071 0.382,-0.511 1.052,-0.941 2.007,-1.291 0.957,-0.351 1.928,-0.382 2.916,-0.095 0.989,0.286 1.866,1.004 2.631,2.151 0.764,1.148 1.178,2.996 1.242,5.546 0,2.294 -0.367,4.016 -1.099,5.163 C 6.773,0 5.928,0.731 4.973,1.051 4.016,1.369 3.061,1.387 2.104,1.1 1.148,0.812 0.445,0.445 0,0 m -4.59,-16.829 c -1.338,1.147 -2.295,2.692 -2.869,4.638 -0.572,1.943 -0.859,3.967 -0.859,6.071 0,1.722 0.238,3.442 0.716,5.163 0.479,1.722 1.227,3.156 2.248,4.303 1.657,1.913 3.792,3.044 6.407,3.394 2.611,0.35 4.97,0.145 7.074,-0.621 2.422,-0.956 4.207,-2.615 5.355,-4.973 1.084,-2.103 1.625,-4.557 1.625,-7.362 0,-2.04 -0.224,-3.793 -0.668,-5.259 -0.447,-1.466 -1.022,-2.71 -1.722,-3.728 -1.529,-2.104 -3.475,-3.412 -5.833,-3.921 -2.103,-0.573 -4.224,-0.622 -6.359,-0.144 -2.136,0.479 -3.839,1.291 -5.115,2.439"
             style="fill:#000000;fill-opacity:1;fill-rule:nonzero;stroke:none"
             id="path1007" /></g><g
           id="g1009"
           transform="matrix(0.6538322,0,0,0.6538322,169.16994,58.529948)"
           style="fill:none;stroke:#000000;stroke-opacity:1"><path
             d="m 0,0 h -6.598 v 14.917 1.338 c 0,1.53 -0.463,2.644 -1.386,3.347 -0.926,0.7 -1.961,1.051 -3.108,1.051 -1.148,0 -2.168,-0.351 -3.06,-1.051 -0.893,-0.703 -1.338,-1.817 -1.338,-3.347 V 0 h -6.694 v 14.917 c 0,4.334 1.131,7.233 3.395,8.701 2.262,1.465 4.764,2.262 7.506,2.391 1.465,0 2.9,-0.16 4.303,-0.479 1.4,-0.32 2.677,-0.957 3.823,-1.912 0.958,0.827 2.089,1.418 3.395,1.769 1.307,0.349 2.662,0.557 4.065,0.622 2.804,0 5.385,-0.735 7.744,-2.199 2.357,-1.468 3.539,-4.432 3.539,-8.893 L 15.586,0 H 12.238 C 11.283,0 10.501,0.302 9.896,0.908 9.289,1.514 8.988,2.295 8.988,3.251 v 13.004 c 0,1.53 -0.463,2.644 -1.386,3.347 -0.926,0.7 -1.961,1.051 -3.108,1.051 -1.148,0 -2.185,-0.351 -3.107,-1.051 C 0.461,18.899 0,17.785 0,16.255 v -1.338 z"
             style="fill:none;fill-opacity:1;fill-rule:nonzero;stroke:#000000;stroke-opacity:1"
             id="path1011" /></g><g
           id="g1013"
           transform="matrix(0.6538322,0,0,0.6538322,190.81538,66.907827)"
           style="fill:none;stroke:#000000;stroke-opacity:1"><path
             d="m 0,0 c -0.893,-0.447 -2.135,-0.861 -3.729,-1.244 l -2.199,-0.478 c -1.147,-0.319 -1.976,-0.733 -2.486,-1.243 -0.445,-0.702 -0.668,-1.402 -0.668,-2.103 0,-0.956 0.285,-1.721 0.859,-2.295 0.575,-0.511 1.403,-0.766 2.487,-0.766 1.782,0 3.187,0.51 4.207,1.531 C -0.51,-5.58 0,-4.176 0,-2.391 Z m 1.531,-11.762 c -1.34,-0.702 -2.758,-1.131 -4.256,-1.291 -1.498,-0.158 -2.82,-0.238 -3.968,-0.238 -2.293,0 -4.303,0.621 -6.024,1.863 -1.721,1.244 -2.582,3.299 -2.582,6.168 0,2.678 0.781,4.59 2.344,5.738 1.56,1.147 3.553,1.912 5.976,2.294 0.319,0 0.7,0.048 1.147,0.144 0.445,0.096 0.957,0.174 1.529,0.238 2.805,0.383 4.207,1.211 4.207,2.487 0,0.957 -0.494,1.578 -1.48,1.865 -0.99,0.286 -1.899,0.43 -2.727,0.43 -0.892,0 -1.689,-0.129 -2.39,-0.383 -0.702,-0.255 -1.211,-0.734 -1.53,-1.434 h -6.406 c 0.254,1.975 1.149,3.601 2.678,4.877 1.721,1.465 4.174,2.199 7.363,2.199 3.568,0 6.246,-0.607 8.031,-1.817 1.848,-1.276 2.774,-3.06 2.774,-5.355 v -8.701 c 0,-2.551 -0.465,-4.542 -1.387,-5.976 -0.926,-1.434 -2.025,-2.471 -3.299,-3.108"
             style="fill:none;fill-opacity:1;fill-rule:nonzero;stroke:#000000;stroke-opacity:1"
             id="path1015" /></g><g
           id="g1017"
           transform="matrix(0.6538322,0,0,0.6538322,207.52256,66.782684)"
           style="mix-blend-mode:normal;fill:none;stroke:#000000;stroke-width:0.999912;stroke-linecap:butt;stroke-linejoin:miter;stroke-miterlimit:4;stroke-dasharray:none;stroke-opacity:1;paint-order:normal"><path
             d="m 0,0 c 0,2.485 -0.477,4.398 -1.434,5.736 -0.957,1.339 -2.328,2.008 -4.111,2.008 -1.721,0 -3.06,-0.669 -4.016,-2.008 C -10.455,4.525 -10.9,2.613 -10.9,0 c 0,-2.424 0.478,-4.24 1.435,-5.451 0.955,-1.338 2.326,-2.008 4.111,-2.008 1.657,0 2.963,0.67 3.92,2.008 C -0.477,-4.112 0,-2.295 0,0 m -10.9,-18.742 c 0,-0.891 -0.319,-1.656 -0.955,-2.295 -0.639,-0.635 -1.403,-0.955 -2.295,-0.955 h -3.252 V 1.816 c 0,4.461 1.306,7.506 3.922,9.131 2.611,1.626 5.448,2.44 8.509,2.44 1.592,0 3.203,-0.305 4.828,-0.909 C 1.484,11.871 2.773,10.996 3.73,9.848 5.643,7.362 6.598,4.174 6.598,0.286 6.598,-3.729 5.643,-6.98 3.73,-9.467 1.816,-11.891 -0.637,-13.1 -3.633,-13.1 c -1.594,0 -2.998,0.287 -4.207,0.86 -1.275,0.636 -2.295,1.626 -3.06,2.965 z"
             style="fill:none;fill-opacity:1;fill-rule:nonzero;stroke:#000000;stroke-width:0.999912;stroke-linecap:butt;stroke-linejoin:miter;stroke-miterlimit:4;stroke-dasharray:none;stroke-opacity:1;paint-order:normal"
             id="path1019" /></g></g></g></g></svg>
